# xmcd
#
# Track frame offsets: 
#        150
#        26412
#        53667
#        76357
#        123837
#        167620
#        198532
#
# Disc length: 3407 seconds
#
# Revision: 3
# Processed by: cddbd v1.5.2PL0 Copyright (c) Steve Scherf et al.
# Submitted via: ExactAudioCopyFreeDBPlugin 1.0
#
DISCID=4e0d4d07
DTITLE=DŻEM - List do R. na 12 głosów vol. 2
DYEAR=1995
DGENRE=Blues
TTITLE0=Autsajder
TTITLE1=Jesiony
TTITLE2=Abym mógł przed siebie iść
TTITLE3=Czerwony jak cegła
TTITLE4=Modlitwa III - pozwol mi
TTITLE5=Złoty paw
TTITLE6=Niewinni i ja cz. I, II
EXTD=YEAR: 1995
EXTT0=
EXTT1=
EXTT2=
EXTT3=
EXTT4=
EXTT5=
EXTT6=
PLAYORDER=
